<?xml version="1.0" encoding="UTF-8"?>
<svg width="108px" height="108px" viewBox="0 0 108 108" version="1.1" xmlns="http://www.w3.org/2000/svg" xmlns:xlink="http://www.w3.org/1999/xlink">
    <title>BBBF7A3E-C7DB-4E30-B2D2-5428952FF68D</title>
    <defs>
        <circle id="path-1" cx="54" cy="54" r="54"></circle>
        <filter x="-2.3%" y="-2.3%" width="104.6%" height="104.6%" filterUnits="objectBoundingBox" id="filter-2">
            <feGaussianBlur stdDeviation="1.5" in="SourceAlpha" result="shadowBlurInner1"></feGaussianBlur>
            <feOffset dx="2" dy="2" in="shadowBlurInner1" result="shadowOffsetInner1"></feOffset>
            <feComposite in="shadowOffsetInner1" in2="SourceAlpha" operator="arithmetic" k2="-1" k3="1" result="shadowInnerInner1"></feComposite>
            <feColorMatrix values="0 0 0 0 0   0 0 0 0 0   0 0 0 0 0  0 0 0 0.5 0" type="matrix" in="shadowInnerInner1"></feColorMatrix>
        </filter>
        <path d="M56.8421053,36.3621974 C56.8421053,42.9065198 53.9244322,48.9661249 48.8930614,53.0259339 C46.8388141,54.6620145 45.4990876,56.8132049 45.0822373,59.1157895 C45.0227869,59.085539 44.9929222,59.085539 44.9334718,59.085539 L27.0704518,59.085539 C27.0108619,59.085539 26.9215468,59.085539 26.8619569,59.1157895 C26.4452461,56.7223115 25.2245599,54.6317641 23.4679831,53.298614 C16.9778456,48.2994789 13.9411322,40.1190759 15.6082543,31.878172 C17.2457909,23.8491633 23.6466133,17.3048409 31.5362068,15.6385099 C37.817989,14.2751094 44.2486762,15.8505471 49.1312815,19.8802477 C54.043612,23.9400567 56.8421053,29.9390189 56.8421053,36.3621974" id="path-3"></path>
        <filter x="-12.0%" y="-11.4%" width="133.6%" height="131.8%" filterUnits="objectBoundingBox" id="filter-4">
            <feOffset dx="2" dy="2" in="SourceAlpha" result="shadowOffsetOuter1"></feOffset>
            <feGaussianBlur stdDeviation="2" in="shadowOffsetOuter1" result="shadowBlurOuter1"></feGaussianBlur>
            <feColorMatrix values="0 0 0 0 0   0 0 0 0 0   0 0 0 0 0  0 0 0 0.5 0" type="matrix" in="shadowBlurOuter1"></feColorMatrix>
        </filter>
        <path d="M45.1854528,58.3881633 C45.0948922,58.9035807 45.0344714,59.4188559 45.0344714,59.9645419 L45.0344714,66.6946682 C45.0344714,69.604993 42.6497565,72.0000426 39.7518179,72.0000426 L32.2051498,72.0000426 C29.6694534,72.0000426 26.9223548,70.0597313 26.9223548,65.8156023 L26.9223548,60.4496907 C26.9223548,59.752378 26.8620754,59.0550653 26.7110939,58.3881633 C26.7715148,58.3578947 26.8620754,58.3578947 26.9223548,58.3578947 L45.0344714,58.3578947 C45.0948922,58.3578947 45.1250319,58.3578947 45.1854528,58.3881633 Z" id="path-5"></path>
        <filter x="-27.1%" y="-36.7%" width="175.8%" height="202.6%" filterUnits="objectBoundingBox" id="filter-6">
            <feOffset dx="2" dy="2" in="SourceAlpha" result="shadowOffsetOuter1"></feOffset>
            <feGaussianBlur stdDeviation="2" in="shadowOffsetOuter1" result="shadowBlurOuter1"></feGaussianBlur>
            <feColorMatrix values="0 0 0 0 0   0 0 0 0 0   0 0 0 0 0  0 0 0 0.5 0" type="matrix" in="shadowBlurOuter1"></feColorMatrix>
        </filter>
    </defs>
    <g id="Page-Designs" stroke="none" stroke-width="1" fill="none" fill-rule="evenodd">
        <g id="D-6.0---The-Orbit-" transform="translate(-188.000000, -760.000000)">
            <g id="Knowledge-Center-Icon" transform="translate(188.000000, 760.000000)">
                <g id="Oval">
                    <use fill="#065094" fill-rule="evenodd" xlink:href="#path-1"></use>
                    <use fill="black" fill-opacity="1" filter="url(#filter-2)" xlink:href="#path-1"></use>
                </g>
                <g id="Group-22" transform="translate(18.000000, 17.999979)">
                    <path d="M36.3789474,9.85263158 C35.1238737,9.85263158 34.1052632,8.8950096 34.1052632,7.71508252 L34.1052632,2.13754906 C34.1052632,0.957621977 35.1238737,0 36.3789474,0 C37.6340211,0 38.6526316,0.957621977 38.6526316,2.13754906 L38.6526316,7.71508252 C38.6526316,8.8950096 37.6340211,9.85263158 36.3789474,9.85263158" id="Fill-1" fill="#FFFFFF"></path>
                    <path d="M55.9774556,18.1894737 C55.422531,18.1894737 54.8676063,17.9785507 54.4455872,17.5537245 C53.5988394,16.7069169 53.5988394,15.3342242 54.4455872,14.4874166 L58.4457595,10.4877373 C59.2925073,9.64092967 60.6654581,9.64092967 61.5122059,10.4877373 C62.3590893,11.3344095 62.3590893,12.7072376 61.5122059,13.5539097 L57.5121692,17.5537245 C57.087305,17.9755704 56.5323803,18.1894737 55.9774556,18.1894737" id="Fill-3" fill="#FFFFFF"></path>
                    <path d="M69.8624509,38.6526316 L64.2849175,38.6526316 C63.1049904,38.6526316 62.1473684,37.6340211 62.1473684,36.3789474 C62.1473684,35.1238737 63.1049904,34.1052632 64.2849175,34.1052632 L69.8624509,34.1052632 C71.042378,34.1052632 72,35.1238737 72,36.3789474 C72,37.6340211 71.042378,38.6526316 69.8624509,38.6526316" id="Fill-5" fill="#FFFFFF"></path>
                    <path d="M59.9775189,62.1473684 C59.422601,62.1473684 58.8676831,61.9364455 58.4456691,61.5116192 L54.4456811,57.5118045 C53.5988081,56.6651323 53.5988081,55.2923042 54.4456811,54.445632 C55.2925541,53.5988244 56.6653527,53.5988244 57.5122256,54.445632 L61.5122137,58.4453113 C62.3590867,59.292119 62.3590867,60.6648116 61.5122137,61.5116192 C61.0873547,61.9364455 60.5324368,62.1473684 59.9775189,62.1473684" id="Fill-7" fill="#FFFFFF"></path>
                    <path d="M12.0195609,62.1473684 C11.4646362,62.1473684 10.9097116,61.9364455 10.4876925,61.5116192 C9.64094462,60.6648116 9.64094462,59.292119 10.4876925,58.4453113 L14.4878647,54.445632 C15.3346125,53.5988244 16.7075634,53.5988244 17.5543112,54.445632 C18.4011945,55.2923042 18.4011945,56.6651323 17.5543112,57.5118045 L13.5542744,61.5116192 C13.1294102,61.9364455 12.5744856,62.1473684 12.0195609,62.1473684" id="Fill-9" fill="#FFFFFF"></path>
                    <path d="M7.71508252,38.6526316 L2.13754906,38.6526316 C0.957621977,38.6526316 0,37.6340211 0,36.3789474 C0,35.1238737 0.957621977,34.1052632 2.13754906,34.1052632 L7.71508252,34.1052632 C8.8950096,34.1052632 9.85263158,35.1238737 9.85263158,36.3789474 C9.85263158,37.6340211 8.8950096,38.6526316 7.71508252,38.6526316" id="Fill-11" fill="#FFFFFF"></path>
                    <path d="M16.0196241,18.1894737 C15.4647062,18.1894737 14.9097883,17.9785507 14.4877744,17.5537245 L10.4877863,13.5539097 C9.64091333,12.7072376 9.64091333,11.3344095 10.4877863,10.4877373 C11.3346593,9.64092967 12.7074579,9.64092967 13.5543309,10.4877373 L17.5543189,14.4874166 C18.4011919,15.3342242 18.4011919,16.7069169 17.5543189,17.5537245 C17.1266149,17.9755704 16.574542,18.1894737 16.0196241,18.1894737" id="Fill-13" fill="#FFFFFF"></path>
                    <g id="Fill-15">
                        <use fill="black" fill-opacity="1" filter="url(#filter-4)" xlink:href="#path-3"></use>
                        <use fill="#FFFFFF" fill-rule="evenodd" xlink:href="#path-3"></use>
                    </g>
                    <g id="Fill-17">
                        <use fill="black" fill-opacity="1" filter="url(#filter-6)" xlink:href="#path-5"></use>
                        <use fill="#F58220" fill-rule="evenodd" xlink:href="#path-5"></use>
                    </g>
                    <path d="M46.9894808,37.8947368 C45.734411,37.8947368 44.7158037,36.8761295 44.7158037,35.6210597 C44.7158037,31.0221215 40.9778785,27.2841963 36.3789403,27.2841963 C35.1238705,27.2841963 34.1052632,26.265589 34.1052632,25.0105192 C34.1052632,23.7554494 35.1238705,22.7368421 36.3789403,22.7368421 C43.4819075,22.7368421 49.2631579,28.5180925 49.2631579,35.6210597 C49.2631579,36.8761295 48.2445506,37.8947368 46.9894808,37.8947368" id="Fill-20" fill="#065094"></path>
                </g>
            </g>
        </g>
    </g>
</svg>