<?xml version="1.0" encoding="UTF-8"?>
<svg width="96px" height="96px" viewBox="0 0 96 96" version="1.1" xmlns="http://www.w3.org/2000/svg" xmlns:xlink="http://www.w3.org/1999/xlink">
    <title>73E90668-6FFA-4940-8E70-5B0B535DB84D</title>
    <defs>
        <circle id="path-1" cx="45.5" cy="45.5" r="45.5"></circle>
        <filter x="-2.2%" y="-2.2%" width="104.4%" height="104.4%" filterUnits="objectBoundingBox" id="filter-2">
            <feGaussianBlur stdDeviation="1" in="SourceAlpha" result="shadowBlurInner1"></feGaussianBlur>
            <feOffset dx="2" dy="2" in="shadowBlurInner1" result="shadowOffsetInner1"></feOffset>
            <feComposite in="shadowOffsetInner1" in2="SourceAlpha" operator="arithmetic" k2="-1" k3="1" result="shadowInnerInner1"></feComposite>
            <feColorMatrix values="0 0 0 0 0   0 0 0 0 0   0 0 0 0 0  0 0 0 0.5 0" type="matrix" in="shadowInnerInner1"></feColorMatrix>
        </filter>
        <filter x="-20.6%" y="-21.1%" width="142.2%" height="141.7%" filterUnits="objectBoundingBox" id="filter-3">
            <feOffset dx="2" dy="2" in="SourceAlpha" result="shadowOffsetOuter1"></feOffset>
            <feGaussianBlur stdDeviation="1.5" in="shadowOffsetOuter1" result="shadowBlurOuter1"></feGaussianBlur>
            <feColorMatrix values="0 0 0 0 0   0 0 0 0 0   0 0 0 0 0  0 0 0 0.24 0" type="matrix" in="shadowBlurOuter1" result="shadowMatrixOuter1"></feColorMatrix>
            <feMerge>
                <feMergeNode in="shadowMatrixOuter1"></feMergeNode>
                <feMergeNode in="SourceGraphic"></feMergeNode>
            </feMerge>
        </filter>
    </defs>
    <g id="Page-Designs" stroke="none" stroke-width="1" fill="none" fill-rule="evenodd">
        <g id="D-5.1---Case-Studies-Page" transform="translate(-187.000000, -1028.000000)">
            <g id="Group-4" transform="translate(189.000000, 1030.000000)">
                <g id="Oval">
                    <use fill="#2275C3" fill-rule="evenodd" xlink:href="#path-1"></use>
                    <use fill="black" fill-opacity="1" filter="url(#filter-2)" xlink:href="#path-1"></use>
                </g>
                <g id="Group-48" filter="url(#filter-3)" transform="translate(46.040007, 45.989247) rotate(45.000000) translate(-46.040007, -45.989247) translate(20.548387, 20.548387)">
                    <g id="Group-7" transform="translate(50.004744, 0.066295)" stroke="#FFFFFF" stroke-linejoin="round" stroke-width="0.6075">
                        <polyline id="Stroke-1" points="0.00012 0 1.19992 0 1.19992 0.795541705"></polyline>
                        <line x1="1.2" y1="2.28407979" x2="1.2" y2="22.3791981" id="Stroke-3" stroke-dasharray="1.136733770370483,1.136733770370483"></line>
                        <polyline id="Stroke-5" points="1.2 23.1234406 1.2 23.9189823 0 23.9189823"></polyline>
                    </g>
                    <line x1="48.2175906" y1="23.9852774" x2="41.9623675" y2="23.9852774" id="Stroke-8" stroke="#FFFFFF" stroke-width="0.6075" stroke-linejoin="round" stroke-dasharray="1.367887526750565,1.367887526750565"></line>
                    <g id="Group-47">
                        <path d="M41.0686055,23.9852774 L40.2748794,23.9852774 C40.3915571,24.2308347 40.5081026,24.4681713 40.6225314,24.7004694" id="Stroke-9" stroke="#FFFFFF" stroke-width="0.6075" stroke-linejoin="round"></path>
                        <path d="M41.325151,26.1947619 C41.346317,26.2446159 41.3670862,26.2946024 41.3875908,26.3447216 C41.9822239,27.8010932 41.2674736,29.4556874 39.8289773,30.0498245 C38.3570122,30.6578835 36.691378,29.9788887 36.0700228,28.5121749 C35.7120523,27.6670445 35.7781961,26.838753 36.1818059,26.0233227 C36.2810216,25.8229788 36.3790468,25.6221045 36.4776011,25.4184458" id="Stroke-11" stroke="#FFFFFF" stroke-width="0.6075" stroke-linejoin="round" stroke-dasharray="1.261473745107651,1.261473745107651"></path>
                        <path d="M36.8353467,24.6741768 C36.9464683,24.4421438 37.0605003,24.2041442 37.179427,23.9572611 L36.3857009,23.9572611" id="Stroke-13" stroke="#FFFFFF" stroke-width="0.6075" stroke-linejoin="round"></path>
                        <line x1="34.6424799" y1="23.9572611" x2="28.5412397" y2="23.9572611" id="Stroke-15" stroke="#FFFFFF" stroke-width="0.6075" stroke-linejoin="round" stroke-dasharray="1.334171265363693,1.334171265363693"></line>
                        <polyline id="Stroke-17" stroke="#FFFFFF" stroke-width="0.6075" stroke-linejoin="round" points="27.6700856 23.9572611 26.8759626 23.9572611 26.8759626 23.1617194"></polyline>
                        <line x1="26.8760023" y1="21.425211" x2="26.8760023" y2="15.3475375" id="Stroke-19" stroke="#FFFFFF" stroke-width="0.6075" stroke-linejoin="round" stroke-dasharray="1.326071262359619,1.326071262359619"></line>
                        <path d="M26.8760023,14.4792435 L26.8760023,13.6837018 C26.6312701,13.8002487 26.3942106,13.9171933 26.1617811,14.0321491" id="Stroke-21" stroke="#FFFFFF" stroke-width="0.6075" stroke-linejoin="round"></path>
                        <path d="M24.6707402,14.729627 C24.6379328,14.7431512 24.6049932,14.7565429 24.5719213,14.7698019 C23.4629536,15.2153052 22.4186746,15.035778 21.5359189,14.2182263 C20.6513112,13.3986858 20.4071081,12.3656749 20.7552893,11.2267243 C21.2561305,9.588041 23.0855369,8.79488592 24.6893927,9.50384616 C24.9429882,9.61601755 25.1942025,9.73349254 25.447798,9.85534301" id="Stroke-23" stroke="#FFFFFF" stroke-width="0.6075" stroke-linejoin="round" stroke-dasharray="1.259549975395203,1.259549975395203"></path>
                        <path d="M26.1872465,10.2163466 C26.4187499,10.3302416 26.6554126,10.4466559 26.9008062,10.5649264 L26.9008062,9.76925214" id="Stroke-25" stroke="#FFFFFF" stroke-width="0.6075" stroke-linejoin="round"></path>
                        <line x1="26.9007798" y1="7.99644048" x2="26.9007798" y2="1.79148037" id="Stroke-27" stroke="#FFFFFF" stroke-width="0.6075" stroke-linejoin="round" stroke-dasharray="1.353813797235489,1.353813797235489"></line>
                        <polyline id="Stroke-29" stroke="#FFFFFF" stroke-width="0.6075" stroke-linejoin="round" points="26.9007798 0.905140834 26.9007798 0.109599129 27.6945059 0.109599129"></polyline>
                        <line x1="29.2671286" y1="0.109638906" x2="34.7712223" y2="0.109638906" id="Stroke-31" stroke="#FFFFFF" stroke-width="0.6075" stroke-linejoin="round" stroke-dasharray="1.203659892082214,1.203659892082214"></line>
                        <path d="M35.55758,0.109638906 L36.3513061,0.109638906 C36.2355543,0.356522015 36.119538,0.593858624 36.0068289,0.826952343" id="Stroke-33" stroke="#FFFFFF" stroke-width="0.6075" stroke-linejoin="round"></path>
                        <path d="M35.4152781,2.18201179 C34.9744955,3.58919247 35.4640923,5.1391729 36.6418495,6.03627876 C37.9104884,7.00259675 39.6566858,7.01267361 40.934188,6.06120573 C42.272807,5.06412679 42.7195425,3.2790638 42.0143169,1.70680821 C41.9758212,1.6210223 41.9367963,1.53550156 41.89711,1.44984824" id="Stroke-35" stroke="#FFFFFF" stroke-width="0.6075" stroke-linejoin="round" stroke-dasharray="1.130051225423813,1.130051225423813"></path>
                        <path d="M41.5794476,0.782468303 C41.4675322,0.551230847 41.3521774,0.3144246 41.2337799,0.0663481782 L42.027506,0.0663481782" id="Stroke-37" stroke="#FFFFFF" stroke-width="0.6075" stroke-linejoin="round"></path>
                        <line x1="43.6230806" y1="0.0662951421" x2="49.2072083" y2="0.0662951421" id="Stroke-39" stroke="#FFFFFF" stroke-width="0.6075" stroke-linejoin="round" stroke-dasharray="1.221075028181076,1.221075028181076"></line>
                        <path d="M0,23.9852774 L0,0.066255365 L23.8927431,0.066255365 L23.8927431,6.20452257 C19.7932801,6.18702065 17.6458541,9.28936812 17.6151633,11.9814813 C17.5984951,13.4440847 18.0366319,14.7534137 18.9765359,15.8715476 C20.2491434,17.3853309 21.9212597,18.0378077 23.8836152,18.0124829 L23.8836152,23.9952217 L13.3995517,23.9952217 C13.7890067,24.8109171 14.1695983,25.5428155 14.492248,26.2995083 C14.9601495,27.3966929 14.6925316,28.6234182 13.8521079,29.4521075 C13.0349669,30.2578586 11.8110412,30.4909523 10.7291926,30.0470401 C9.23883952,29.4355337 8.55742566,27.7183569 9.22547846,26.2064299 C9.549451,25.4733382 9.91496187,24.7586766 10.2858965,23.9852774 L0,23.9852774 Z" id="Fill-41" fill="#FFFFFF"></path>
                        <path d="M9.22706592,50.8817204 L0,50.8817204 L0,26.9626983 L5.93151515,26.9626983 C5.85544973,30.7482836 8.66431411,33.2139325 11.7524378,33.2799624 C14.5636834,33.3398932 17.8169021,31.132265 17.7606798,26.9992933 L23.8351979,26.9992933 L23.8351979,37.1665814 C24.0517529,37.0727075 24.2016348,37.0131745 24.3466221,36.9438298 C24.9720783,36.6455016 25.5782204,36.2966566 26.2244458,36.0545467 C27.3408215,35.6362244 28.3893337,35.8279499 29.2498651,36.6663183 C30.0892305,37.4840026 30.356187,38.4971249 29.9815483,39.621358 C29.609423,40.7379007 28.814374,41.3894494 27.6457447,41.5760039 C26.9991225,41.6791592 26.4029019,41.5270781 25.8269213,41.2422742 C25.183474,40.9241901 24.5355289,40.6153873 23.8291127,40.2733044 C23.8291127,40.5696437 23.8293773,40.7666728 23.8291127,40.9635694 C23.823292,44.2695755 23.8176037,47.5757143 23.811783,50.8817204 L14.3862856,50.8817204 C14.6001948,50.3813247 14.8131779,49.8805312 15.02841,49.3806658 C15.3301582,48.6795284 15.4236856,47.9591654 15.2825346,47.2019423 C14.9392481,45.3592025 13.0827227,44.066845 11.2334732,44.39726 C9.2756155,44.7469006 7.92350308,46.5505262 8.320763,48.4315846 C8.49868993,49.2745936 8.91751274,50.0665554 9.22706592,50.8817204" id="Fill-43" fill="#FFFFFF"></path>
                        <path d="M26.8874716,50.8817204 C26.8688191,50.6698412 26.8345566,50.4579619 26.8340274,50.2460826 C26.8295296,48.5594016 26.831514,46.8728532 26.831514,45.1863048 L26.831514,44.6536896 C31.0458027,44.6786166 33.2012982,41.3776489 33.139123,38.6171191 C33.0787998,35.9361436 30.9979145,32.8194764 26.8730523,32.8120513 L26.8730523,27.0071161 L32.830099,27.0071161 C32.7889575,28.989606 33.4649476,30.665945 34.9977649,31.9455738 C36.0937684,32.8605794 37.3790755,33.2844705 38.7998453,33.2741285 C41.7798899,33.2523837 44.7067549,30.8430856 44.6236782,26.9626983 L50.7984704,26.9626983 L50.7984704,50.8817204 L26.8874716,50.8817204 Z" id="Fill-45" fill="#FFFFFF"></path>
                    </g>
                </g>
            </g>
        </g>
    </g>
</svg>