<?xml version="1.0" encoding="UTF-8"?>
<svg width="29px" height="32px" viewBox="0 0 29 32" version="1.1" xmlns="http://www.w3.org/2000/svg" xmlns:xlink="http://www.w3.org/1999/xlink">
    <title>Checklist Isolated</title>
    <g id="Styleguides" stroke="none" stroke-width="1" fill="none" fill-rule="evenodd">
        <g id="Icons" transform="translate(-112.000000, -378.000000)" fill="#000000" fill-rule="nonzero">
            <g id="Checklist-Isolated" transform="translate(112.867867, 378.000000)">
                <path d="M0,3.75 L0,32 L24.375,32 L24.375,3.75 L0,3.75 Z M13.125,11.375 L16.875,11.375 L16.875,13.25 L13.125,13.25 L13.125,11.375 Z M13.125,18.875 L16.875,18.875 L16.875,20.75 L13.125,20.75 L13.125,18.875 Z M6.5625,28.6381875 L4.0246875,26.100375 L5.350375,24.7746875 L6.5625,25.9868125 L9.6496875,22.899625 L10.975375,24.2253125 L6.5625,28.6381875 Z M6.5625,21.1381875 L4.0246875,18.600375 L5.350375,17.2746875 L6.5625,18.4868125 L9.6496875,15.399625 L10.975375,16.7253125 L6.5625,21.1381875 Z M6.5625,13.6381875 L4.0246875,11.100375 L5.350375,9.7746875 L6.5625,10.9868125 L9.6496875,7.899625 L10.975375,9.2253125 L6.5625,13.6381875 Z M16.875,28.25 L13.125,28.25 L13.125,26.375 L16.875,26.375 L16.875,28.25 Z M20.625,24.5 L13.125,24.5 L13.125,22.625 L20.625,22.625 L20.625,24.5 Z M20.625,17 L13.125,17 L13.125,15.125 L20.625,15.125 L20.625,17 Z M20.625,9.5 L13.125,9.5 L13.125,7.625 L20.625,7.625 L20.625,9.5 Z" id="Shape"></path>
                <polygon id="Path" points="3.75 0 3.75 1.875 26.25 1.875 26.25 28.25 28.125 28.25 28.125 0"></polygon>
            </g>
        </g>
    </g>
</svg>